#define 1282c5956236481d9614fce9c3eb8a5btZ5Pl3KdXWudBrXx_width 64
#define 1282c5956236481d9614fce9c3eb8a5btZ5Pl3KdXWudBrXx_height 128
static char 1282c5956236481d9614fce9c3eb8a5btZ5Pl3KdXWudBrXx_bits[] = {
  0x00, 0x00, 0x00, 0x00, 0x00, 0x00, 0x00, 0x00, 0x00, 0x00, 0x00, 0x00, 
  0x00, 0x00, 0x00, 0x00, 0x00, 0x00, 0x00, 0x00, 0x00, 0x00, 0x00, 0x00, 
  0x00, 0x00, 0x00, 0x00, 0x00, 0x00, 0x00, 0x00, 0x00, 0x00, 0x00, 0x00, 
  0x00, 0x00, 0x00, 0x00, 0x00, 0x00, 0x00, 0x00, 0x00, 0x00, 0x00, 0x00, 
  0x00, 0x00, 0x00, 0x00, 0x00, 0x00, 0x00, 0x00, 0x00, 0x00, 0x00, 0x00, 
  0x00, 0x00, 0x00, 0x00, 0x00, 0x00, 0x00, 0x00, 0x00, 0x00, 0x00, 0x00, 
  0x00, 0x00, 0x00, 0x40, 0x3F, 0x00, 0x00, 0x00, 0x00, 0x00, 0x00, 0xF8, 
  0xFF, 0x03, 0x00, 0x00, 0x00, 0x00, 0x00, 0xFE, 0xFF, 0x3F, 0x00, 0x00, 
  0x00, 0x00, 0x80, 0xFF, 0xFF, 0xFF, 0x00, 0x00, 0x00, 0x00, 0xC0, 0xFF, 
  0xFF, 0xFF, 0x00, 0x00, 0x00, 0x00, 0xF0, 0xFF, 0xFF, 0xFF, 0x01, 0x00, 
  0x00, 0x00, 0xF8, 0xFF, 0xFF, 0xFF, 0x03, 0x00, 0x00, 0x00, 0xFE, 0xFF, 
  0xFF, 0xFF, 0x07, 0x00, 0x00, 0x00, 0xFE, 0xFF, 0xFF, 0xFF, 0x07, 0x00, 
  0x00, 0x00, 0xFF, 0xFF, 0xFF, 0xFF, 0x1F, 0x00, 0x00, 0x80, 0xFF, 0xFF, 
  0xFF, 0xFF, 0x1F, 0x00, 0x00, 0x80, 0xFF, 0xFF, 0xFF, 0xFF, 0x3F, 0x00, 
  0x00, 0xC0, 0xFF, 0xFB, 0xFF, 0xFF, 0x7F, 0x00, 0x00, 0xC0, 0x3F, 0x80, 
  0xFF, 0xFF, 0x7F, 0x00, 0x00, 0xC0, 0x07, 0x00, 0xF8, 0xFF, 0x7F, 0x00, 
  0x00, 0xC0, 0x03, 0x00, 0x80, 0xFF, 0xFF, 0x00, 0x00, 0xC0, 0x00, 0x00, 
  0x00, 0xFF, 0xFF, 0x00, 0x00, 0x00, 0x00, 0x00, 0x00, 0xFE, 0xFF, 0x00, 
  0x00, 0x00, 0x00, 0x00, 0x00, 0xFE, 0xFF, 0x00, 0x00, 0x00, 0x00, 0x00, 
  0x00, 0xF8, 0xFF, 0x01, 0x00, 0x00, 0x00, 0x00, 0x00, 0xF8, 0xFF, 0x01, 
  0x00, 0x00, 0x00, 0x00, 0x00, 0xF0, 0xFF, 0x01, 0x00, 0x00, 0x00, 0x00, 
  0x00, 0xE0, 0xFF, 0x00, 0x00, 0x00, 0x00, 0x00, 0x00, 0xC0, 0xFF, 0x01, 
  0x00, 0x00, 0x00, 0x00, 0x04, 0xC0, 0xFF, 0x01, 0x00, 0x00, 0x00, 0x80, 
  0x03, 0x80, 0xFF, 0x00, 0x00, 0x00, 0x00, 0xC0, 0x02, 0x80, 0xFF, 0x01, 
  0x00, 0x00, 0x00, 0xC0, 0x03, 0x00, 0xFF, 0x00, 0x80, 0xFF, 0x07, 0x00, 
  0x06, 0x00, 0xFF, 0x00, 0x80, 0xFF, 0x07, 0x00, 0x00, 0x00, 0x7F, 0x00, 
  0x80, 0xFF, 0x07, 0x80, 0x1F, 0x00, 0xFF, 0x00, 0x80, 0x31, 0x06, 0x80, 
  0x04, 0x00, 0x7F, 0x00, 0x80, 0x31, 0x06, 0x80, 0x07, 0x00, 0x7E, 0x00, 
  0x80, 0x39, 0x06, 0x00, 0x00, 0x00, 0x3F, 0x00, 0x80, 0x7F, 0x07, 0x00, 
  0x03, 0x00, 0x1F, 0x00, 0x80, 0xFF, 0x07, 0x80, 0x07, 0x00, 0x1F, 0x00, 
  0x00, 0xEF, 0x03, 0x80, 0x05, 0x00, 0x07, 0x00, 0x00, 0x00, 0x00, 0x00, 
  0x01, 0x00, 0x02, 0x00, 0x00, 0x00, 0x00, 0x00, 0x00, 0x00, 0x00, 0x00, 
  0x00, 0x00, 0x00, 0x80, 0x07, 0x00, 0x00, 0x00, 0xC0, 0xFC, 0x07, 0x80, 
  0x00, 0x00, 0x00, 0x00, 0xC0, 0xFC, 0x07, 0x80, 0x00, 0x00, 0x00, 0x00, 
  0x80, 0xFC, 0x07, 0x80, 0x07, 0x00, 0x00, 0x00, 0x00, 0x00, 0x00, 0x80, 
  0x04, 0x00, 0x00, 0x00, 0x00, 0x00, 0x00, 0x00, 0x00, 0x00, 0x00, 0x00, 
  0x00, 0x0C, 0x00, 0x00, 0x03, 0x00, 0x00, 0x00, 0x00, 0xFF, 0x07, 0x80, 
  0x07, 0x00, 0x00, 0x00, 0x80, 0xFF, 0x07, 0x80, 0x05, 0x00, 0x00, 0x00, 
  0x00, 0x0E, 0x0E, 0x00, 0x01, 0x00, 0x00, 0x00, 0x00, 0x0C, 0x0E, 0x00, 
  0x00, 0x00, 0x00, 0x00, 0x00, 0x0C, 0x06, 0x00, 0x00, 0x00, 0x00, 0x00, 
  0x00, 0x00, 0x00, 0x40, 0x00, 0x00, 0x00, 0x00, 0x00, 0x00, 0x00, 0x00, 
  0x00, 0x00, 0x00, 0x00, 0x80, 0xFF, 0x07, 0x40, 0x00, 0x00, 0x00, 0x00, 
  0x80, 0xFF, 0x07, 0x00, 0x00, 0x00, 0x00, 0x00, 0x80, 0xFF, 0x07, 0x00, 
  0x07, 0x00, 0x00, 0x00, 0x80, 0x01, 0x06, 0xC0, 0x02, 0x00, 0x00, 0x00, 
  0x80, 0x01, 0x06, 0xC0, 0x03, 0x00, 0x00, 0x00, 0x80, 0x01, 0x06, 0x00, 
  0x07, 0x00, 0x00, 0x00, 0x80, 0x01, 0x06, 0x00, 0x00, 0x00, 0x00, 0x00, 
  0x80, 0x03, 0x07, 0x40, 0x00, 0x00, 0x00, 0x00, 0x00, 0xFF, 0x03, 0x40, 
  0x00, 0x00, 0x00, 0x00, 0x00, 0xFE, 0x01, 0x00, 0x00, 0x00, 0x00, 0x00, 
  0x00, 0xFC, 0x00, 0x00, 0x00, 0x00, 0x00, 0x00, 0x00, 0x00, 0x00, 0x00, 
  0x00, 0x00, 0x00, 0x00, 0x00, 0x00, 0x00, 0x80, 0x1F, 0x00, 0x00, 0x00, 
  0x00, 0xF0, 0x01, 0x80, 0x04, 0x00, 0x00, 0x00, 0x00, 0xFC, 0x03, 0x80, 
  0x04, 0x00, 0x00, 0x00, 0x00, 0xFC, 0x07, 0x00, 0x07, 0x00, 0x00, 0x00, 
  0x00, 0x0C, 0x06, 0x00, 0x00, 0x00, 0x00, 0x00, 0x00, 0x0E, 0x0E, 0x80, 
  0x06, 0x00, 0x00, 0x00, 0x00, 0x0E, 0x0E, 0x80, 0x04, 0x00, 0x00, 0x00, 
  0x00, 0x1C, 0x07, 0x80, 0x07, 0x00, 0x00, 0x00, 0x00, 0xFC, 0x07, 0x00, 
  0x00, 0x00, 0x00, 0x00, 0x00, 0xF8, 0x03, 0x80, 0x07, 0x00, 0x00, 0x00, 
  0x00, 0x00, 0x00, 0x80, 0x01, 0x00, 0x00, 0x00, 0x00, 0x00, 0x00, 0x80, 
  0x00, 0x00, 0x00, 0x00, 0x00, 0x00, 0x00, 0x00, 0x00, 0x00, 0x00, 0x00, 
  0x00, 0xFC, 0x07, 0x80, 0x06, 0x00, 0x00, 0x00, 0x00, 0xFC, 0x07, 0x80, 
  0x04, 0x00, 0x00, 0x00, 0x00, 0x38, 0x00, 0x80, 0x07, 0x00, 0x00, 0x00, 
  0x00, 0x0C, 0x00, 0x00, 0x00, 0x00, 0x00, 0x00, 0x00, 0x0C, 0x00, 0x00, 
  0x00, 0x00, 0x00, 0x00, 0x00, 0x0E, 0x00, 0x00, 0x00, 0x00, 0x00, 0x00, 
  0x00, 0x00, 0x00, 0x00, 0x07, 0x00, 0x00, 0x00, 0x00, 0x00, 0x00, 0x80, 
  0x04, 0x00, 0x00, 0x00, 0x00, 0xFC, 0x07, 0x80, 0x04, 0x00, 0x00, 0x00, 
  0x00, 0xFC, 0x07, 0x00, 0x00, 0x00, 0x00, 0x00, 0x00, 0xFC, 0x07, 0x80, 
  0x07, 0x00, 0x00, 0x00, 0x00, 0x0C, 0x00, 0x80, 0x04, 0x00, 0x00, 0x00, 
  0x00, 0x0E, 0x00, 0x80, 0x07, 0x00, 0x00, 0x00, 0x00, 0x0E, 0x00, 0x00, 
  0x03, 0x00, 0x00, 0x00, 0x00, 0xFC, 0x07, 0x00, 0x00, 0x00, 0x00, 0x00, 
  0x00, 0xFC, 0x07, 0x80, 0x07, 0x00, 0x00, 0x00, 0x00, 0xF8, 0x07, 0x80, 
  0x00, 0x00, 0x00, 0x00, 0x00, 0x0C, 0x00, 0x80, 0x07, 0x00, 0x00, 0x00, 
  0x00, 0x0C, 0x00, 0x80, 0x00, 0x00, 0x00, 0x00, 0x00, 0x0E, 0x00, 0x80, 
  0x01, 0x00, 0x00, 0x00, 0x00, 0xFC, 0x07, 0x00, 0x07, 0x00, 0x00, 0x00, 
  0x00, 0xFC, 0x07, 0x00, 0x00, 0x00, 0x00, 0x00, 0x00, 0xF8, 0x07, 0x80, 
  0x07, 0x00, 0x00, 0x00, 0x00, 0x00, 0x00, 0x80, 0x04, 0x00, 0x00, 0x00, 
  0x00, 0x00, 0x00, 0x80, 0x05, 0x00, 0x00, 0x00, 0x00, 0xF0, 0x01, 0x00, 
  0x00, 0x00, 0x00, 0x00, 0x00, 0xF8, 0x03, 0x00, 0x07, 0x00, 0x00, 0x00, 
  0x00, 0xFC, 0x07, 0x80, 0x1C, 0x00, 0x00, 0x00, 0x00, 0x6C, 0x06, 0x80, 
  0x04, 0x00, 0x00, 0x00, 0x00, 0x66, 0x0C, 0x00, 0x00, 0x00, 0x00, 0x00, 
  0x00, 0x6E, 0x0C, 0x80, 0x06, 0x00, 0x00, 0x00, 0x00, 0x7C, 0x0E, 0x80, 
  0x04, 0x00, 0x00, 0x00, 0x00, 0x7C, 0x06, 0x80, 0x07, 0x00, 0x00, 0x00, 
  0x00, 0x78, 0x00, 0x00, 0x00, 0x00, 0x00, 0x00, 0x00, 0x00, 0x00, 0x80, 
  0x07, 0x00, 0x00, 0x00, 0x00, 0x00, 0x00, 0x80, 0x03, 0x00, 0x00, 0x00, 
  0x00, 0x00, 0x00, 0x80, 0x00, 0x00, 0x00, 0x00, 0x00, 0x00, 0x00, 0x00, 
  0x00, 0x00, 0x00, 0x00, 0x00, 0x00, 0x00, 0x00, 0x00, 0x00, 0x00, 0x00, 
  0x00, 0x00, 0x00, 0x00, 0x00, 0x00, 0x00, 0x00, 0x00, 0x00, 0x00, 0x00, 
  0x00, 0x00, 0x00, 0x00, };
